<svg version="1.1" xmlns="http://www.w3.org/2000/svg" xmlns:xlink="http://www.w3.org/1999/xlink" x="0px" y="0px"
	 viewBox="0 90 612 612" enable-background="new 0 90 612 612" xml:space="preserve">
<path d="M390.8,396.4l-58.5,58.5l-52.6,52.6l-58.5-58.9l52.6-52.6l-52.6-52.2l58.5-58.5l52.6,52.6L390.8,396.4z M251.4,619.8h42.9
	V702h-42.9c-92.8,0-161.8-25.3-205-74.8C16,592.1-0.4,545.3-0.4,492.3V298.2c0.4-52.6,16.4-99,46.8-133.7
	C89.3,114.9,157.9,90,250.3,90h44v82.2h-44c-111.9,0-168,41.7-168,125.9v193.7C82.2,577.3,138.4,619.8,251.4,619.8z M612,298.2
	v193.7c0,53-16,99.8-46.8,134.9C522.3,676.7,453.3,702,360.6,702h-42.9v-82.2h42.9c113,0,169.2-42.5,169.2-127.5V298.2
	c0-84.2-56.1-125.9-168-125.9h-44V90h44c92.4,0,161,24.9,203.9,74.5C596,199.1,612,245.5,612,298.2z"/>
</svg>
