<svg version="1.1" id="Layer_1" xmlns="http://www.w3.org/2000/svg" xmlns:xlink="http://www.w3.org/1999/xlink" x="0px" y="0px"
	 viewBox="0 0 50 86.3" enable-background="new 0 0 50 86.3" xml:space="preserve">
<polygon class="scroll-text" fill="#fff" points="15.3,18.3 34.7,18.3 34.7,59.7 50,49.5 50,65.9 25,86.3
	0,65.9 0,49.5 15.3,59.7 "/>
<path class="scroll-arrow" fill="#fff" d="M12.9,2.8V3h-0.7V2.8c0-1.2-0.4-2.1-1.7-2.1S8.8,1.6,8.8,2.7c0,2.7,4,2.8,4,5.9c0,1.6-0.7,2.8-2.4,2.8
	c-1.7,0-2.4-1.2-2.4-2.8V8h0.7v0.6c0,1.2,0.5,2.1,1.7,2.1s1.7-0.9,1.7-2.1c0-2.7-4-2.7-4-5.9C8.1,1.1,8.8,0,10.5,0
	C12.2,0,12.9,1.2,12.9,2.8z M18.9,2.8v0.9h-0.7v-1c0-1.2-0.5-2.1-1.7-2.1c-1.2,0-1.7,0.9-1.7,2.1v5.8c0,1.2,0.5,2.1,1.7,2.1
	c1.2,0,1.7-0.9,1.7-2.1V7.3h0.7v1.3c0,1.6-0.7,2.8-2.4,2.8c-1.7,0-2.4-1.2-2.4-2.8V2.8C14,1.2,14.7,0,16.4,0
	C18.2,0,18.9,1.2,18.9,2.8z M22.4,0.1c1.7,0,2.4,0.9,2.4,2.5v1c0,1.3-0.5,2.1-1.6,2.3c1.2,0.3,1.6,1.1,1.6,2.3V10c0,0.5,0,1,0.3,1.3
	h-0.8c-0.2-0.3-0.2-0.7-0.2-1.3V8.2c0-1.5-0.8-1.9-2.1-1.9h-1.2v5h-0.7V0.1H22.4z M22,5.6c1.3,0,2.1-0.4,2.1-1.9V2.7
	c0-1.2-0.5-1.9-1.7-1.9h-1.6v4.9H22z M26.2,2.8c0-1.6,0.8-2.8,2.4-2.8c1.7,0,2.5,1.2,2.5,2.8v5.7c0,1.6-0.8,2.8-2.5,2.8
	c-1.7,0-2.4-1.2-2.4-2.8V2.8z M26.9,8.6c0,1.2,0.5,2.1,1.7,2.1c1.2,0,1.7-0.9,1.7-2.1V2.8c0-1.2-0.5-2.1-1.7-2.1
	c-1.2,0-1.7,0.9-1.7,2.1V8.6z M32.3,11.3V0.1h0.7v10.5h3.5v0.7H32.3z M37.7,11.3V0.1h0.7v10.5h3.5v0.7H37.7z"/>
</svg>
